<?xml version="1.0" standalone="no"?>
<!DOCTYPE svg PUBLIC "-//W3C//DTD SVG 20010904//EN"
 "http://www.w3.org/TR/2001/REC-SVG-20010904/DTD/svg10.dtd">
<svg version="1.0" xmlns="http://www.w3.org/2000/svg"
 width="256.000000pt" height="256.000000pt" viewBox="0 0 256.000000 256.000000"
 preserveAspectRatio="xMidYMid meet">

<g transform="translate(0.000000,256.000000) scale(0.100000,-0.100000)"
fill="#000000" stroke="none">
<path d="M1203 2286 c-156 -90 -289 -169 -298 -176 -11 -9 -15 -33 -15 -89 0
-73 -1 -77 -27 -89 -16 -7 -154 -85 -308 -175 l-280 -162 -3 -345 c-2 -267 1
-350 10 -362 17 -22 619 -348 643 -348 10 0 42 14 72 30 l53 30 0 -63 c0 -35
6 -71 13 -80 16 -23 616 -347 641 -347 22 0 528 282 564 313 l22 20 0 358 0
357 -131 77 -132 77 46 29 c26 16 49 39 52 51 3 13 4 178 3 367 l-3 344 -295
173 c-169 99 -306 173 -320 173 -14 0 -148 -71 -307 -163z m327 94 c8 -5 11
-10 5 -10 -5 0 -17 5 -25 10 -8 5 -10 10 -5 10 6 0 17 -5 25 -10z m-160 -75
c0 -2 -10 -9 -22 -15 -22 -11 -22 -10 -4 4 21 17 26 19 26 11z m-339 -199
c-10 -12 0 -22 56 -55 226 -133 503 -127 797 18 82 41 102 47 117 38 11 -7 19
-17 19 -23 0 -12 -491 -294 -511 -294 -21 0 -509 285 -509 297 0 7 8 17 18 22
24 14 26 13 13 -3z m1039 -388 l0 -313 -83 -46 c-45 -26 -154 -87 -242 -136
-88 -49 -170 -95 -183 -102 l-22 -12 2 312 3 312 260 148 c143 81 261 148 263
148 1 1 2 -140 2 -311z m-843 155 l242 -140 6 -296 c4 -219 3 -297 -5 -297
-11 0 -207 102 -427 223 l-93 51 0 296 c0 163 3 300 7 304 10 9 0 14 270 -141z
m-345 -211 c-2 -133 1 -228 7 -244 6 -15 31 -41 57 -57 l47 -29 -39 -24 c-21
-13 -44 -28 -51 -31 -17 -11 -524 284 -521 302 2 11 476 297 498 300 3 1 4
-97 2 -217z m-276 -298 l254 -147 0 -292 c0 -160 -3 -294 -6 -297 -3 -3 -44
15 -92 41 -48 26 -165 89 -259 140 l-173 93 0 297 c0 267 2 311 18 311 2 0
118 -66 258 -146z m504 -89 c27 -13 51 -29 54 -34 3 -4 -20 -24 -52 -42 l-57
-34 -3 -250 -3 -250 -59 -32 c-32 -18 -61 -33 -64 -33 -3 0 -6 139 -6 310 l0
309 68 40 c37 22 68 40 70 41 1 0 25 -11 52 -25z m964 -56 c58 -34 106 -67
106 -74 0 -18 -3 -20 -268 -169 l-242 -137 -255 146 c-140 81 -255 153 -255
160 0 13 59 55 77 55 6 0 72 -34 148 -75 76 -41 148 -75 159 -75 12 0 111 52
221 115 110 62 201 114 202 114 0 1 49 -27 107 -60z m156 -448 l0 -309 -62
-35 c-35 -19 -153 -85 -262 -146 -110 -61 -201 -111 -203 -111 -1 0 -3 139 -3
308 l0 309 258 146 c141 80 260 146 265 147 4 0 7 -139 7 -309z m-1113 -159
c-1 -81 -3 -12 -3 153 0 165 2 231 3 147 2 -84 2 -219 0 -300z m133 -208 c0
-2 -9 0 -20 6 -11 6 -20 13 -20 16 0 2 9 0 20 -6 11 -6 20 -13 20 -16z m110
-60 c0 -2 -9 0 -20 6 -11 6 -20 13 -20 16 0 2 9 0 20 -6 11 -6 20 -13 20 -16z"/>
</g>
</svg>
