<?xml version="1.0" standalone="no"?>
<!DOCTYPE svg PUBLIC "-//W3C//DTD SVG 20010904//EN"
 "http://www.w3.org/TR/2001/REC-SVG-20010904/DTD/svg10.dtd">
<svg version="1.0" xmlns="http://www.w3.org/2000/svg"
 width="512.000000pt" height="512.000000pt" viewBox="0 0 512.000000 512.000000"
 preserveAspectRatio="xMidYMid meet">

<g transform="translate(0.000000,512.000000) scale(0.100000,-0.100000)"
fill="#888888" stroke="none">
<path d="M2225 5108 c-471 -29 -942 -130 -1255 -269 -331 -147 -538 -336 -617
-564 l-28 -80 -3 -1602 c-3 -1772 -6 -1677 61 -1818 188 -391 790 -659 1687
-752 119 -12 256 -17 490 -17 234 0 371 5 490 17 897 93 1499 361 1687 752 67
141 64 46 61 1818 l-3 1602 -28 80 c-81 230 -285 416 -617 564 -470 209 -1215
313 -1925 269z m675 -318 c461 -32 880 -127 1166 -264 197 -94 325 -200 380
-311 182 -373 -402 -723 -1386 -832 -228 -25 -776 -25 -1000 0 -362 41 -623
99 -868 193 -423 163 -616 383 -532 606 46 124 166 230 375 333 288 142 710
242 1160 274 173 12 536 12 705 1z m-2041 -1414 c224 -116 545 -214 869 -267
548 -89 1115 -89 1664 0 408 66 786 198 1022 356 l67 45 -3 -317 -3 -318 -27
-50 c-180 -343 -962 -585 -1888 -585 -927 0 -1707 242 -1889 585 l-26 50 -3
318 -3 317 67 -45 c37 -24 106 -65 153 -89z m-162 -828 c263 -228 769 -387
1433 -449 174 -17 686 -17 860 0 666 62 1170 221 1435 451 l50 43 3 -74 c2
-41 2 -193 0 -339 l-3 -265 -27 -50 c-180 -343 -962 -585 -1888 -585 -927 0
-1707 242 -1889 585 l-26 50 -3 338 c-2 185 -1 337 2 337 3 0 26 -19 53 -42z
m0 -960 c263 -228 769 -387 1433 -449 174 -17 686 -17 860 0 666 62 1170 221
1435 451 l50 43 3 -318 c3 -364 1 -374 -75 -475 -229 -305 -991 -520 -1843
-520 -954 0 -1766 264 -1901 619 -17 47 -19 79 -19 371 0 176 2 320 4 320 3 0
26 -19 53 -42z"/>
<path d="M3935 3025 c-46 -25 -63 -44 -81 -91 -19 -49 -14 -92 16 -141 22 -38
86 -73 130 -73 72 0 142 62 156 138 9 47 -20 117 -62 149 -44 33 -116 41 -159
18z"/>
<path d="M3935 2065 c-46 -25 -63 -44 -81 -91 -19 -49 -14 -92 16 -141 22 -38
86 -73 130 -73 72 0 142 62 156 138 9 47 -20 117 -62 149 -44 33 -116 41 -159
18z"/>
<path d="M3935 1105 c-46 -25 -63 -44 -81 -91 -29 -75 3 -157 75 -194 51 -25
91 -25 142 0 140 72 98 284 -59 297 -31 3 -57 -1 -77 -12z"/>
</g>
</svg>
